<?xml version="1.0" encoding="UTF-8"?>
<svg xmlns="http://www.w3.org/2000/svg" width="1280" height="720" viewBox="0 0 1280 720" role="img" aria-labelledby="title desc">
  <title id="title">halftone-dots.svg</title>
  <desc id="desc">Transparent overlay texture for subtle visual variance.</desc>
  <defs>
    <filter id="paperNoise" x="-10%" y="-10%" width="120%" height="120%">
      <feTurbulence type="fractalNoise" baseFrequency="0.9" numOctaves="2" seed="12" result="noise"/>
      <feColorMatrix type="saturate" values="0"/>
      <feComponentTransfer>
        <feFuncA type="table" tableValues="0 0.06"/>
      </feComponentTransfer>
      <feBlend in="SourceGraphic" in2="noise" mode="multiply"/>
    </filter>
    <style>
      .ink{stroke:#28313b;stroke-width:7;stroke-linecap:round;stroke-linejoin:round}
      .thin{stroke:#28313b;stroke-width:4;stroke-linecap:round;stroke-linejoin:round}
      .no-fill{fill:none}
      .asset-shadow{fill:#1f2a33;opacity:.16}
      text{font-family:Inter,Arial,sans-serif;font-weight:800;letter-spacing:0}
    </style>
  </defs>

  <rect width="1280" height="720" fill="transparent"/>
  <g id="texture">
    <g fill="#28313b" opacity=".1"><circle cx="40" cy="38" r="3"/><circle cx="98" cy="38" r="4"/><circle cx="156" cy="38" r="5"/><circle cx="214" cy="38" r="6"/><circle cx="272" cy="38" r="3"/><circle cx="330" cy="38" r="4"/><circle cx="388" cy="38" r="5"/><circle cx="446" cy="38" r="6"/><circle cx="504" cy="38" r="3"/><circle cx="562" cy="38" r="4"/><circle cx="620" cy="38" r="5"/><circle cx="678" cy="38" r="6"/><circle cx="736" cy="38" r="3"/><circle cx="794" cy="38" r="4"/><circle cx="852" cy="38" r="5"/><circle cx="910" cy="38" r="6"/><circle cx="968" cy="38" r="3"/><circle cx="1026" cy="38" r="4"/><circle cx="1084" cy="38" r="5"/><circle cx="1142" cy="38" r="6"/><circle cx="1200" cy="38" r="3"/><circle cx="1258" cy="38" r="4"/><circle cx="40" cy="92" r="4"/><circle cx="98" cy="92" r="5"/><circle cx="156" cy="92" r="6"/><circle cx="214" cy="92" r="3"/><circle cx="272" cy="92" r="4"/><circle cx="330" cy="92" r="5"/><circle cx="388" cy="92" r="6"/><circle cx="446" cy="92" r="3"/><circle cx="504" cy="92" r="4"/><circle cx="562" cy="92" r="5"/><circle cx="620" cy="92" r="6"/><circle cx="678" cy="92" r="3"/><circle cx="736" cy="92" r="4"/><circle cx="794" cy="92" r="5"/><circle cx="852" cy="92" r="6"/><circle cx="910" cy="92" r="3"/><circle cx="968" cy="92" r="4"/><circle cx="1026" cy="92" r="5"/><circle cx="1084" cy="92" r="6"/><circle cx="1142" cy="92" r="3"/><circle cx="1200" cy="92" r="4"/><circle cx="1258" cy="92" r="5"/><circle cx="40" cy="146" r="5"/><circle cx="98" cy="146" r="6"/><circle cx="156" cy="146" r="3"/><circle cx="214" cy="146" r="4"/><circle cx="272" cy="146" r="5"/><circle cx="330" cy="146" r="6"/><circle cx="388" cy="146" r="3"/><circle cx="446" cy="146" r="4"/><circle cx="504" cy="146" r="5"/><circle cx="562" cy="146" r="6"/><circle cx="620" cy="146" r="3"/><circle cx="678" cy="146" r="4"/><circle cx="736" cy="146" r="5"/><circle cx="794" cy="146" r="6"/><circle cx="852" cy="146" r="3"/><circle cx="910" cy="146" r="4"/><circle cx="968" cy="146" r="5"/><circle cx="1026" cy="146" r="6"/><circle cx="1084" cy="146" r="3"/><circle cx="1142" cy="146" r="4"/><circle cx="1200" cy="146" r="5"/><circle cx="1258" cy="146" r="6"/><circle cx="40" cy="200" r="6"/><circle cx="98" cy="200" r="3"/><circle cx="156" cy="200" r="4"/><circle cx="214" cy="200" r="5"/><circle cx="272" cy="200" r="6"/><circle cx="330" cy="200" r="3"/><circle cx="388" cy="200" r="4"/><circle cx="446" cy="200" r="5"/><circle cx="504" cy="200" r="6"/><circle cx="562" cy="200" r="3"/><circle cx="620" cy="200" r="4"/><circle cx="678" cy="200" r="5"/><circle cx="736" cy="200" r="6"/><circle cx="794" cy="200" r="3"/><circle cx="852" cy="200" r="4"/><circle cx="910" cy="200" r="5"/><circle cx="968" cy="200" r="6"/><circle cx="1026" cy="200" r="3"/><circle cx="1084" cy="200" r="4"/><circle cx="1142" cy="200" r="5"/><circle cx="1200" cy="200" r="6"/><circle cx="1258" cy="200" r="3"/><circle cx="40" cy="254" r="3"/><circle cx="98" cy="254" r="4"/><circle cx="156" cy="254" r="5"/><circle cx="214" cy="254" r="6"/><circle cx="272" cy="254" r="3"/><circle cx="330" cy="254" r="4"/><circle cx="388" cy="254" r="5"/><circle cx="446" cy="254" r="6"/><circle cx="504" cy="254" r="3"/><circle cx="562" cy="254" r="4"/><circle cx="620" cy="254" r="5"/><circle cx="678" cy="254" r="6"/><circle cx="736" cy="254" r="3"/><circle cx="794" cy="254" r="4"/><circle cx="852" cy="254" r="5"/><circle cx="910" cy="254" r="6"/><circle cx="968" cy="254" r="3"/><circle cx="1026" cy="254" r="4"/><circle cx="1084" cy="254" r="5"/><circle cx="1142" cy="254" r="6"/><circle cx="1200" cy="254" r="3"/><circle cx="1258" cy="254" r="4"/><circle cx="40" cy="308" r="4"/><circle cx="98" cy="308" r="5"/><circle cx="156" cy="308" r="6"/><circle cx="214" cy="308" r="3"/><circle cx="272" cy="308" r="4"/><circle cx="330" cy="308" r="5"/><circle cx="388" cy="308" r="6"/><circle cx="446" cy="308" r="3"/><circle cx="504" cy="308" r="4"/><circle cx="562" cy="308" r="5"/><circle cx="620" cy="308" r="6"/><circle cx="678" cy="308" r="3"/><circle cx="736" cy="308" r="4"/><circle cx="794" cy="308" r="5"/><circle cx="852" cy="308" r="6"/><circle cx="910" cy="308" r="3"/><circle cx="968" cy="308" r="4"/><circle cx="1026" cy="308" r="5"/><circle cx="1084" cy="308" r="6"/><circle cx="1142" cy="308" r="3"/><circle cx="1200" cy="308" r="4"/><circle cx="1258" cy="308" r="5"/><circle cx="40" cy="362" r="5"/><circle cx="98" cy="362" r="6"/><circle cx="156" cy="362" r="3"/><circle cx="214" cy="362" r="4"/><circle cx="272" cy="362" r="5"/><circle cx="330" cy="362" r="6"/><circle cx="388" cy="362" r="3"/><circle cx="446" cy="362" r="4"/><circle cx="504" cy="362" r="5"/><circle cx="562" cy="362" r="6"/><circle cx="620" cy="362" r="3"/><circle cx="678" cy="362" r="4"/><circle cx="736" cy="362" r="5"/><circle cx="794" cy="362" r="6"/><circle cx="852" cy="362" r="3"/><circle cx="910" cy="362" r="4"/><circle cx="968" cy="362" r="5"/><circle cx="1026" cy="362" r="6"/><circle cx="1084" cy="362" r="3"/><circle cx="1142" cy="362" r="4"/><circle cx="1200" cy="362" r="5"/><circle cx="1258" cy="362" r="6"/><circle cx="40" cy="416" r="6"/><circle cx="98" cy="416" r="3"/><circle cx="156" cy="416" r="4"/><circle cx="214" cy="416" r="5"/><circle cx="272" cy="416" r="6"/><circle cx="330" cy="416" r="3"/><circle cx="388" cy="416" r="4"/><circle cx="446" cy="416" r="5"/><circle cx="504" cy="416" r="6"/><circle cx="562" cy="416" r="3"/><circle cx="620" cy="416" r="4"/><circle cx="678" cy="416" r="5"/><circle cx="736" cy="416" r="6"/><circle cx="794" cy="416" r="3"/><circle cx="852" cy="416" r="4"/><circle cx="910" cy="416" r="5"/><circle cx="968" cy="416" r="6"/><circle cx="1026" cy="416" r="3"/><circle cx="1084" cy="416" r="4"/><circle cx="1142" cy="416" r="5"/><circle cx="1200" cy="416" r="6"/><circle cx="1258" cy="416" r="3"/><circle cx="40" cy="470" r="3"/><circle cx="98" cy="470" r="4"/><circle cx="156" cy="470" r="5"/><circle cx="214" cy="470" r="6"/><circle cx="272" cy="470" r="3"/><circle cx="330" cy="470" r="4"/><circle cx="388" cy="470" r="5"/><circle cx="446" cy="470" r="6"/><circle cx="504" cy="470" r="3"/><circle cx="562" cy="470" r="4"/><circle cx="620" cy="470" r="5"/><circle cx="678" cy="470" r="6"/><circle cx="736" cy="470" r="3"/><circle cx="794" cy="470" r="4"/><circle cx="852" cy="470" r="5"/><circle cx="910" cy="470" r="6"/><circle cx="968" cy="470" r="3"/><circle cx="1026" cy="470" r="4"/><circle cx="1084" cy="470" r="5"/><circle cx="1142" cy="470" r="6"/><circle cx="1200" cy="470" r="3"/><circle cx="1258" cy="470" r="4"/><circle cx="40" cy="524" r="4"/><circle cx="98" cy="524" r="5"/><circle cx="156" cy="524" r="6"/><circle cx="214" cy="524" r="3"/><circle cx="272" cy="524" r="4"/><circle cx="330" cy="524" r="5"/><circle cx="388" cy="524" r="6"/><circle cx="446" cy="524" r="3"/><circle cx="504" cy="524" r="4"/><circle cx="562" cy="524" r="5"/><circle cx="620" cy="524" r="6"/><circle cx="678" cy="524" r="3"/><circle cx="736" cy="524" r="4"/><circle cx="794" cy="524" r="5"/><circle cx="852" cy="524" r="6"/><circle cx="910" cy="524" r="3"/><circle cx="968" cy="524" r="4"/><circle cx="1026" cy="524" r="5"/><circle cx="1084" cy="524" r="6"/><circle cx="1142" cy="524" r="3"/><circle cx="1200" cy="524" r="4"/><circle cx="1258" cy="524" r="5"/><circle cx="40" cy="578" r="5"/><circle cx="98" cy="578" r="6"/><circle cx="156" cy="578" r="3"/><circle cx="214" cy="578" r="4"/><circle cx="272" cy="578" r="5"/><circle cx="330" cy="578" r="6"/><circle cx="388" cy="578" r="3"/><circle cx="446" cy="578" r="4"/><circle cx="504" cy="578" r="5"/><circle cx="562" cy="578" r="6"/><circle cx="620" cy="578" r="3"/><circle cx="678" cy="578" r="4"/><circle cx="736" cy="578" r="5"/><circle cx="794" cy="578" r="6"/><circle cx="852" cy="578" r="3"/><circle cx="910" cy="578" r="4"/><circle cx="968" cy="578" r="5"/><circle cx="1026" cy="578" r="6"/><circle cx="1084" cy="578" r="3"/><circle cx="1142" cy="578" r="4"/><circle cx="1200" cy="578" r="5"/><circle cx="1258" cy="578" r="6"/><circle cx="40" cy="632" r="6"/><circle cx="98" cy="632" r="3"/><circle cx="156" cy="632" r="4"/><circle cx="214" cy="632" r="5"/><circle cx="272" cy="632" r="6"/><circle cx="330" cy="632" r="3"/><circle cx="388" cy="632" r="4"/><circle cx="446" cy="632" r="5"/><circle cx="504" cy="632" r="6"/><circle cx="562" cy="632" r="3"/><circle cx="620" cy="632" r="4"/><circle cx="678" cy="632" r="5"/><circle cx="736" cy="632" r="6"/><circle cx="794" cy="632" r="3"/><circle cx="852" cy="632" r="4"/><circle cx="910" cy="632" r="5"/><circle cx="968" cy="632" r="6"/><circle cx="1026" cy="632" r="3"/><circle cx="1084" cy="632" r="4"/><circle cx="1142" cy="632" r="5"/><circle cx="1200" cy="632" r="6"/><circle cx="1258" cy="632" r="3"/><circle cx="40" cy="686" r="3"/><circle cx="98" cy="686" r="4"/><circle cx="156" cy="686" r="5"/><circle cx="214" cy="686" r="6"/><circle cx="272" cy="686" r="3"/><circle cx="330" cy="686" r="4"/><circle cx="388" cy="686" r="5"/><circle cx="446" cy="686" r="6"/><circle cx="504" cy="686" r="3"/><circle cx="562" cy="686" r="4"/><circle cx="620" cy="686" r="5"/><circle cx="678" cy="686" r="6"/><circle cx="736" cy="686" r="3"/><circle cx="794" cy="686" r="4"/><circle cx="852" cy="686" r="5"/><circle cx="910" cy="686" r="6"/><circle cx="968" cy="686" r="3"/><circle cx="1026" cy="686" r="4"/><circle cx="1084" cy="686" r="5"/><circle cx="1142" cy="686" r="6"/><circle cx="1200" cy="686" r="3"/><circle cx="1258" cy="686" r="4"/></g>
  </g>
</svg>
