<?xml version="1.0" encoding="UTF-8"?>
<svg xmlns="http://www.w3.org/2000/svg" width="1280" height="720" viewBox="0 0 1280 720" role="img" aria-labelledby="title desc">
  <title id="title">speckle.svg</title>
  <desc id="desc">Transparent overlay texture for subtle visual variance.</desc>
  <defs>
    <filter id="paperNoise" x="-10%" y="-10%" width="120%" height="120%">
      <feTurbulence type="fractalNoise" baseFrequency="0.9" numOctaves="2" seed="12" result="noise"/>
      <feColorMatrix type="saturate" values="0"/>
      <feComponentTransfer>
        <feFuncA type="table" tableValues="0 0.06"/>
      </feComponentTransfer>
      <feBlend in="SourceGraphic" in2="noise" mode="multiply"/>
    </filter>
    <style>
      .ink{stroke:#28313b;stroke-width:7;stroke-linecap:round;stroke-linejoin:round}
      .thin{stroke:#28313b;stroke-width:4;stroke-linecap:round;stroke-linejoin:round}
      .no-fill{fill:none}
      .asset-shadow{fill:#1f2a33;opacity:.16}
      text{font-family:Inter,Arial,sans-serif;font-weight:800;letter-spacing:0}
    </style>
  </defs>

  <rect width="1280" height="720" fill="transparent"/>
  <g id="texture">
    <g fill="#28313b" opacity=".09"><circle cx="0" cy="0" r="1"/><circle cx="197" cy="113" r="2"/><circle cx="394" cy="226" r="3"/><circle cx="591" cy="339" r="4"/><circle cx="788" cy="452" r="1"/><circle cx="985" cy="565" r="2"/><circle cx="1182" cy="678" r="3"/><circle cx="99" cy="71" r="4"/><circle cx="296" cy="184" r="1"/><circle cx="493" cy="297" r="2"/><circle cx="690" cy="410" r="3"/><circle cx="887" cy="523" r="4"/><circle cx="1084" cy="636" r="1"/><circle cx="1" cy="29" r="2"/><circle cx="198" cy="142" r="3"/><circle cx="395" cy="255" r="4"/><circle cx="592" cy="368" r="1"/><circle cx="789" cy="481" r="2"/><circle cx="986" cy="594" r="3"/><circle cx="1183" cy="707" r="4"/><circle cx="100" cy="100" r="1"/><circle cx="297" cy="213" r="2"/><circle cx="494" cy="326" r="3"/><circle cx="691" cy="439" r="4"/><circle cx="888" cy="552" r="1"/><circle cx="1085" cy="665" r="2"/><circle cx="2" cy="58" r="3"/><circle cx="199" cy="171" r="4"/><circle cx="396" cy="284" r="1"/><circle cx="593" cy="397" r="2"/><circle cx="790" cy="510" r="3"/><circle cx="987" cy="623" r="4"/><circle cx="1184" cy="16" r="1"/><circle cx="101" cy="129" r="2"/><circle cx="298" cy="242" r="3"/><circle cx="495" cy="355" r="4"/><circle cx="692" cy="468" r="1"/><circle cx="889" cy="581" r="2"/><circle cx="1086" cy="694" r="3"/><circle cx="3" cy="87" r="4"/><circle cx="200" cy="200" r="1"/><circle cx="397" cy="313" r="2"/><circle cx="594" cy="426" r="3"/><circle cx="791" cy="539" r="4"/><circle cx="988" cy="652" r="1"/><circle cx="1185" cy="45" r="2"/><circle cx="102" cy="158" r="3"/><circle cx="299" cy="271" r="4"/><circle cx="496" cy="384" r="1"/><circle cx="693" cy="497" r="2"/><circle cx="890" cy="610" r="3"/><circle cx="1087" cy="3" r="4"/><circle cx="4" cy="116" r="1"/><circle cx="201" cy="229" r="2"/><circle cx="398" cy="342" r="3"/><circle cx="595" cy="455" r="4"/><circle cx="792" cy="568" r="1"/><circle cx="989" cy="681" r="2"/><circle cx="1186" cy="74" r="3"/><circle cx="103" cy="187" r="4"/><circle cx="300" cy="300" r="1"/><circle cx="497" cy="413" r="2"/><circle cx="694" cy="526" r="3"/><circle cx="891" cy="639" r="4"/><circle cx="1088" cy="32" r="1"/><circle cx="5" cy="145" r="2"/><circle cx="202" cy="258" r="3"/><circle cx="399" cy="371" r="4"/><circle cx="596" cy="484" r="1"/><circle cx="793" cy="597" r="2"/><circle cx="990" cy="710" r="3"/><circle cx="1187" cy="103" r="4"/><circle cx="104" cy="216" r="1"/><circle cx="301" cy="329" r="2"/><circle cx="498" cy="442" r="3"/><circle cx="695" cy="555" r="4"/><circle cx="892" cy="668" r="1"/><circle cx="1089" cy="61" r="2"/><circle cx="6" cy="174" r="3"/><circle cx="203" cy="287" r="4"/><circle cx="400" cy="400" r="1"/><circle cx="597" cy="513" r="2"/><circle cx="794" cy="626" r="3"/><circle cx="991" cy="19" r="4"/><circle cx="1188" cy="132" r="1"/><circle cx="105" cy="245" r="2"/><circle cx="302" cy="358" r="3"/><circle cx="499" cy="471" r="4"/><circle cx="696" cy="584" r="1"/><circle cx="893" cy="697" r="2"/><circle cx="1090" cy="90" r="3"/><circle cx="7" cy="203" r="4"/><circle cx="204" cy="316" r="1"/><circle cx="401" cy="429" r="2"/><circle cx="598" cy="542" r="3"/><circle cx="795" cy="655" r="4"/><circle cx="992" cy="48" r="1"/><circle cx="1189" cy="161" r="2"/><circle cx="106" cy="274" r="3"/><circle cx="303" cy="387" r="4"/><circle cx="500" cy="500" r="1"/><circle cx="697" cy="613" r="2"/><circle cx="894" cy="6" r="3"/><circle cx="1091" cy="119" r="4"/><circle cx="8" cy="232" r="1"/><circle cx="205" cy="345" r="2"/><circle cx="402" cy="458" r="3"/><circle cx="599" cy="571" r="4"/><circle cx="796" cy="684" r="1"/><circle cx="993" cy="77" r="2"/><circle cx="1190" cy="190" r="3"/><circle cx="107" cy="303" r="4"/><circle cx="304" cy="416" r="1"/><circle cx="501" cy="529" r="2"/><circle cx="698" cy="642" r="3"/><circle cx="895" cy="35" r="4"/><circle cx="1092" cy="148" r="1"/><circle cx="9" cy="261" r="2"/><circle cx="206" cy="374" r="3"/><circle cx="403" cy="487" r="4"/><circle cx="600" cy="600" r="1"/><circle cx="797" cy="713" r="2"/><circle cx="994" cy="106" r="3"/><circle cx="1191" cy="219" r="4"/><circle cx="108" cy="332" r="1"/><circle cx="305" cy="445" r="2"/><circle cx="502" cy="558" r="3"/><circle cx="699" cy="671" r="4"/><circle cx="896" cy="64" r="1"/><circle cx="1093" cy="177" r="2"/><circle cx="10" cy="290" r="3"/><circle cx="207" cy="403" r="4"/><circle cx="404" cy="516" r="1"/><circle cx="601" cy="629" r="2"/><circle cx="798" cy="22" r="3"/><circle cx="995" cy="135" r="4"/><circle cx="1192" cy="248" r="1"/><circle cx="109" cy="361" r="2"/><circle cx="306" cy="474" r="3"/><circle cx="503" cy="587" r="4"/><circle cx="700" cy="700" r="1"/><circle cx="897" cy="93" r="2"/><circle cx="1094" cy="206" r="3"/><circle cx="11" cy="319" r="4"/><circle cx="208" cy="432" r="1"/><circle cx="405" cy="545" r="2"/><circle cx="602" cy="658" r="3"/><circle cx="799" cy="51" r="4"/><circle cx="996" cy="164" r="1"/><circle cx="1193" cy="277" r="2"/><circle cx="110" cy="390" r="3"/><circle cx="307" cy="503" r="4"/><circle cx="504" cy="616" r="1"/><circle cx="701" cy="9" r="2"/><circle cx="898" cy="122" r="3"/><circle cx="1095" cy="235" r="4"/><circle cx="12" cy="348" r="1"/><circle cx="209" cy="461" r="2"/><circle cx="406" cy="574" r="3"/><circle cx="603" cy="687" r="4"/><circle cx="800" cy="80" r="1"/><circle cx="997" cy="193" r="2"/><circle cx="1194" cy="306" r="3"/><circle cx="111" cy="419" r="4"/><circle cx="308" cy="532" r="1"/><circle cx="505" cy="645" r="2"/><circle cx="702" cy="38" r="3"/><circle cx="899" cy="151" r="4"/><circle cx="1096" cy="264" r="1"/><circle cx="13" cy="377" r="2"/><circle cx="210" cy="490" r="3"/><circle cx="407" cy="603" r="4"/><circle cx="604" cy="716" r="1"/><circle cx="801" cy="109" r="2"/><circle cx="998" cy="222" r="3"/><circle cx="1195" cy="335" r="4"/><circle cx="112" cy="448" r="1"/><circle cx="309" cy="561" r="2"/><circle cx="506" cy="674" r="3"/><circle cx="703" cy="67" r="4"/></g>
  </g>
</svg>
