<?xml version="1.0" encoding="UTF-8"?>
<svg xmlns="http://www.w3.org/2000/svg" width="240" height="240" viewBox="0 0 240 240" role="img" aria-labelledby="title desc">
  <title id="title">brain</title>
  <desc id="desc">Reusable cartoon prop with thick outline and transparent background.</desc>
  <defs>
    <filter id="paperNoise" x="-10%" y="-10%" width="120%" height="120%">
      <feTurbulence type="fractalNoise" baseFrequency="0.9" numOctaves="2" seed="12" result="noise"/>
      <feColorMatrix type="saturate" values="0"/>
      <feComponentTransfer>
        <feFuncA type="table" tableValues="0 0.06"/>
      </feComponentTransfer>
      <feBlend in="SourceGraphic" in2="noise" mode="multiply"/>
    </filter>
    <style>
      .ink{stroke:#28313b;stroke-width:7;stroke-linecap:round;stroke-linejoin:round}
      .thin{stroke:#28313b;stroke-width:4;stroke-linecap:round;stroke-linejoin:round}
      .no-fill{fill:none}
      .asset-shadow{fill:#1f2a33;opacity:.16}
      text{font-family:Inter,Arial,sans-serif;font-weight:800;letter-spacing:0}
    </style>
  </defs>

  <rect width="240" height="240" rx="24" fill="none"/>
  <g id="prop" filter="url(#paperNoise)">
    <ellipse class="asset-shadow" cx="120" cy="205" rx="70" ry="12"/>
    <path class="ink" d="M82 143 q-36 -9 -31 -48 q3 -26 29 -30 q8 -34 44 -28 q30 -20 58 5 q31 1 38 32 q27 12 20 45 q-5 33 -39 35 q-20 35 -58 14 q-34 16 -61 -25z" fill="#b57acc"/><path class="thin no-fill" d="M91 75 q24 15 17 40 M145 61 q-24 30 5 56 M188 75 q-31 13 -23 47 M101 143 q32 -18 55 6"/>
  </g>
</svg>
